<svg width="18" height="18" viewBox="0 0 18 18" fill="none" xmlns="http://www.w3.org/2000/svg">
<path d="M11.8125 14.3476C11.19 14.3476 10.6875 13.7176 10.6875 12.9376C10.6875 12.1651 11.19 11.5351 11.8125 11.5351C12.435 11.5351 12.9375 12.1651 12.9375 12.9376C12.9375 13.7176 12.435 14.3476 11.8125 14.3476ZM9 8.43762C8.07 8.43762 7.31249 7.80762 7.31249 7.03512C7.31249 6.25512 8.07 5.62512 9 5.62512C9.93 5.62512 10.6875 6.25512 10.6875 7.03512C10.6875 7.80762 9.93 8.43762 9 8.43762ZM6.18749 14.3476C5.56499 14.3476 5.06249 13.7176 5.06249 12.9376C5.06249 12.1651 5.56499 11.5351 6.18749 11.5351C6.80999 11.5351 7.31249 12.1651 7.31249 12.9376C7.31249 13.7176 6.80999 14.3476 6.18749 14.3476ZM9 6.18762C9.3075 6.18762 9.5625 6.44262 9.5625 6.75012C9.5625 7.05762 9.3075 7.31262 9 7.31262C8.6925 7.31262 8.4375 7.05762 8.4375 6.75012C8.4375 6.44262 8.6925 6.18762 9 6.18762ZM14.0625 9.00012C13.8225 9.00012 13.59 9.05262 13.38 9.15012C13.02 8.69262 12.5325 8.30262 11.9475 8.00262C12.375 7.40262 12.63 6.67512 12.63 5.88762V5.84262C13.4475 5.67012 14.0625 4.94262 14.0625 4.06512C14.0625 3.06762 13.245 2.25012 12.2475 2.25012C11.73 2.25012 11.25 2.46762 10.935 2.81262C10.3566 2.44499 9.68537 2.24976 9 2.24976C8.31462 2.24976 7.64343 2.44499 7.06499 2.81262C6.74999 2.46762 6.26999 2.25012 5.75249 2.25012C4.75499 2.25012 3.93749 3.06762 3.93749 4.06512C3.93749 4.93512 4.55249 5.66262 5.36249 5.84262V5.88762C5.36249 6.67512 5.62499 7.41012 6.045 8.00262C5.46749 8.30262 4.97999 8.69262 4.61999 9.15012C4.36369 9.03466 4.08252 8.98536 3.80223 9.00674C3.52193 9.02812 3.25149 9.11949 3.01566 9.27248C2.77983 9.42547 2.58616 9.63518 2.45239 9.88242C2.31863 10.1297 2.24903 10.4065 2.24999 10.6876C2.24999 11.6251 2.99999 12.3751 3.93749 12.3751H3.98249C3.95249 12.5551 3.93749 12.7501 3.93749 12.9376C3.93749 14.4901 4.94249 15.7501 6.18749 15.7501C6.94499 15.7501 7.61249 15.2776 8.02499 14.5576C8.33999 14.6026 8.6625 14.6251 9 14.6251C9.3375 14.6251 9.66 14.6026 9.975 14.5576C10.3875 15.2776 11.055 15.7501 11.8125 15.7501C13.0575 15.7501 14.0625 14.4901 14.0625 12.9376C14.0625 12.7501 14.0475 12.5551 14.0175 12.3751H14.0625C15 12.3751 15.75 11.6251 15.75 10.6876C15.75 9.75012 15 9.00012 14.0625 9.00012Z" fill="white"/>
</svg>
