<svg width="18" height="18" viewBox="0 0 18 18" fill="none" xmlns="http://www.w3.org/2000/svg">
<g clip-path="url(#clip0_71_558)">
<path d="M17.5542 3.25834L14.7417 0.445845C14.6362 0.340391 14.4931 0.281184 14.3439 0.28125C14.1947 0.281316 14.0516 0.340649 13.9461 0.446197C13.8407 0.551745 13.7815 0.694861 13.7815 0.844063C13.7816 0.993264 13.8409 1.13633 13.9465 1.24178L14.111 1.40631L9.88031 5.63631C8.27789 4.80241 6.48352 4.87202 5.39649 5.95834C5.10962 6.24644 4.88491 6.59033 4.73625 6.96873C4.6906 7.07132 4.61612 7.15844 4.52188 7.21948C4.42763 7.28052 4.31768 7.31286 4.20539 7.31256C3.17953 7.34702 2.28867 7.71475 1.62844 8.37498C0.779062 9.22647 0.421875 10.4485 0.614531 11.8175C0.801562 13.1274 1.48148 14.4247 2.53125 15.4688C3.58102 16.513 4.87547 17.1957 6.1875 17.3827C6.42262 17.4179 6.65994 17.4362 6.89766 17.4376C7.97485 17.4376 8.92477 17.0698 9.62297 16.3716C10.2832 15.7114 10.6509 14.8205 10.6854 13.7947C10.6853 13.6822 10.7179 13.572 10.7794 13.4778C10.8408 13.3835 10.9283 13.3091 11.0313 13.2638C11.4099 13.1154 11.7538 12.8907 12.0417 12.6036C13.128 11.5165 13.1977 9.72077 12.3638 8.11975L16.5938 3.88905L16.7583 4.05358C16.8105 4.10584 16.8725 4.14731 16.9407 4.17561C17.009 4.20391 17.0821 4.21849 17.156 4.21853C17.2299 4.21856 17.303 4.20404 17.3713 4.1758C17.4396 4.14756 17.5016 4.10615 17.5539 4.05393C17.6061 4.00171 17.6476 3.93972 17.6759 3.87148C17.7042 3.80323 17.7188 3.73009 17.7188 3.65621C17.7189 3.58233 17.7043 3.50917 17.6761 3.44091C17.6478 3.37264 17.6064 3.31061 17.5542 3.25834ZM11.25 11.8076C11.0707 11.9862 10.8565 12.1257 10.6207 12.2176C10.3143 12.3438 10.0514 12.5566 9.86404 12.83C9.67672 13.1034 9.57316 13.4254 9.56602 13.7567C9.54071 14.4922 9.28477 15.1215 8.83266 15.5764C8.23922 16.1691 7.3561 16.4166 6.34641 16.2718C5.27344 16.1192 4.19977 15.5525 3.32367 14.6764C2.44758 13.8003 1.88086 12.7266 1.72828 11.6586C1.58766 10.6482 1.83094 9.76577 2.42367 9.17233C2.87859 8.71881 3.50789 8.46358 4.24336 8.43756C4.57471 8.4306 4.89683 8.32711 5.17023 8.13976C5.44362 7.95242 5.65641 7.68938 5.7825 7.38288C5.87391 7.14586 6.01349 6.93038 6.19242 6.75006C6.57844 6.36405 7.10649 6.17842 7.6957 6.17842C8.15924 6.18584 8.61659 6.28601 9.04078 6.47303L7.62891 7.88842C7.20744 7.93483 6.80766 8.09938 6.47565 8.36312C6.14364 8.62686 5.89291 8.97904 5.75236 9.37909C5.61181 9.77913 5.58716 10.2107 5.68125 10.6242C5.77534 11.0376 5.98434 11.4161 6.28417 11.7159C6.58399 12.0157 6.96243 12.2247 7.37588 12.3188C7.78932 12.4129 8.22093 12.3882 8.62098 12.2477C9.02102 12.1071 9.37321 11.8564 9.63694 11.5244C9.90068 11.1924 10.0652 10.7926 10.1116 10.3712L11.5235 8.95928C11.982 10.0344 11.9159 11.1383 11.25 11.8076ZM10.5188 7.48483C10.6674 7.63431 10.8066 7.79281 10.9357 7.95944L9.85149 9.04366C9.64465 8.66809 9.33549 8.35893 8.95992 8.15209L10.0441 7.06717C10.2096 7.19662 10.3669 7.3361 10.5152 7.48483H10.5188ZM7.875 9.00006C8.17337 9.00006 8.45952 9.11859 8.6705 9.32957C8.88148 9.54055 9 9.82669 9 10.1251C9 10.3476 8.93402 10.5651 8.8104 10.7501C8.68679 10.9351 8.51109 11.0793 8.30552 11.1644C8.09995 11.2496 7.87375 11.2719 7.65553 11.2284C7.4373 11.185 7.23684 11.0779 7.07951 10.9206C6.92217 10.7632 6.81503 10.5628 6.77162 10.3445C6.72821 10.1263 6.75049 9.90011 6.83564 9.69454C6.92079 9.48898 7.06498 9.31328 7.24999 9.18966C7.43499 9.06604 7.6525 9.00006 7.875 9.00006ZM11.3098 6.6903C11.1606 6.54168 11.0038 6.40086 10.8401 6.26842L12.375 4.7328L13.2673 5.62506L11.7323 7.15928C11.5999 6.99556 11.4584 6.83949 11.3098 6.6903ZM14.0625 4.82913L13.1709 3.93756L14.9063 2.20155L15.7985 3.09381L14.0625 4.82913ZM6.58547 13.6639C6.63773 13.7161 6.6792 13.7781 6.7075 13.8463C6.7358 13.9146 6.75038 13.9877 6.75042 14.0616C6.75045 14.1355 6.73593 14.2086 6.70769 14.2769C6.67945 14.3452 6.63804 14.4072 6.58582 14.4595C6.53361 14.5117 6.47161 14.5532 6.40337 14.5815C6.33513 14.6098 6.26198 14.6244 6.1881 14.6244C6.11422 14.6245 6.04106 14.6099 5.9728 14.5817C5.90453 14.5535 5.8425 14.512 5.79024 14.4598L3.54023 12.2098C3.43478 12.1043 3.37557 11.9612 3.37564 11.812C3.37571 11.6628 3.43504 11.5197 3.54059 11.4142C3.64613 11.3088 3.78925 11.2496 3.93845 11.2496C4.08765 11.2497 4.23072 11.309 4.33617 11.4146L6.58547 13.6639Z" fill="white"/>
</g>
<defs>
<clipPath id="clip0_71_558">
<rect width="18" height="18" fill="white"/>
</clipPath>
</defs>
</svg>
